<?xml version="1.0" encoding="utf-8"?>
<!-- Generator: Adobe Illustrator 27.5.0, SVG Export Plug-In . SVG Version: 6.00 Build 0)  -->
<svg version="1.1" xmlns="http://www.w3.org/2000/svg" xmlns:xlink="http://www.w3.org/1999/xlink" x="0px" y="0px"
	 viewBox="0 0 500 500" style="enable-background:new 0 0 500 500;" xml:space="preserve">
<g id="BACKGROUND">
	<g>
		<rect x="0" y="0" style="fill:#FAFAFA;" width="500" height="500"/>
		
			<line style="fill:none;stroke:#462837;stroke-width:1.8;stroke-linecap:round;stroke-linejoin:round;stroke-miterlimit:10;" x1="94.094" y1="386.614" x2="391.732" y2="386.614"/>
	</g>
</g>
<g id="OBJECTS">
	<g>
		<g>
			<path style="fill:#F5C3B4;" d="M227.67,274.475c12.597,1.102,26.272,0.986,34.636,0.751c5.056-0.142,10.07-0.894,14.95-2.227
				l34.539-9.432l2.025,1.244l2.965-33.886l-0.047-0.006c-11.703-4.683-27.495,5.476-51.204,16.016
				c-10.134,2.509-35.3,7.734-35.3,7.734L227.67,274.475z"/>
			<path style="opacity:0.5;fill:#F5C3B4;" d="M236.907,253.269c-3.976,0.839-6.674,1.4-6.674,1.4l-2.563,19.806
				c2.343,0.205,4.722,0.367,7.099,0.495C236.182,265.798,236.774,255.806,236.907,253.269z"/>
			<path style="opacity:0.5;fill:#F5C3B4;" d="M316.737,230.919c-10.505-4.203-24.309,3.553-44.171,12.807
				c1.49,5.301,4.923,17.289,8.506,28.231l30.722-8.39l2.026,1.244l2.964-33.886L316.737,230.919z"/>
			<g>
				<path style="fill:none;stroke:#462837;stroke-width:1.8;stroke-linecap:round;stroke-linejoin:round;stroke-miterlimit:10;" d="
					M227.67,274.475c12.597,1.102,26.272,0.986,34.636,0.751c5.056-0.142,10.07-0.894,14.95-2.227l34.539-9.432l2.025,1.244
					l2.965-33.886l-0.047-0.006c-11.703-4.683-27.495,5.476-51.204,16.016c-10.134,2.509-35.3,7.734-35.3,7.734L227.67,274.475z"/>
			</g>
		</g>
		<g>
			<path style="fill:#9FAAFC;" d="M317.295,229.526c-9.884-3.953-21.952,1.764-38.656,9.681c-1.205,0.571-2.426,1.149-3.66,1.731
				c1.457,5.276,5.479,19.59,9.488,31.647l27.096-7.401l3.543,2.177l3.223-37.423L317.295,229.526z"/>
			<path style="fill:none;stroke:#462837;stroke-width:1.8;stroke-linecap:round;stroke-linejoin:round;stroke-miterlimit:10;" d="
				M317.295,229.526c-9.884-3.953-21.952,1.764-38.656,9.681c-1.205,0.571-2.426,1.149-3.66,1.731
				c1.457,5.276,5.479,19.59,9.488,31.647l27.096-7.401l3.543,2.177l3.223-37.423L317.295,229.526z"/>
		</g>
		<g>
			<path style="fill:#D7DEFF;" d="M230.233,253.606c-1.347-2.334-4.314-3.698-8.897-4.38c-5.81-0.865-8.876,0.376-8.839,1.359
				c0.109,2.853,6.529,2.707,6.578,3.887c0.054,1.288-1.947,2.094-3.953,1.752c-5.8-0.988-8.143-0.754-8.422,0.636
				c-0.098,0.488,0.438,1.252,1.476,2.087c-1.757,0.044-2.599,0.356-2.948,1.267c-0.265,0.691,0.575,1.764,2.241,2.721
				c-0.973,0.23-1.567,0.646-1.817,1.358c-0.21,0.598,1.01,1.701,2.992,2.598c-1.323,0.247-1.959,0.758-1.98,1.416
				c-0.042,1.309,5.514,4.075,9.022,5.023c5.131,1.387,8.949,1.943,11.984,2.208c1.594,0.139,3.209,0.257,4.83,0.36
				c1.453-8.661,2.06-18.565,2.312-23.25C232.017,253.235,230.233,253.606,230.233,253.606z"/>
			<g>
				<g>
					<path style="fill:#462837;" d="M204.528,259.945c0.873-2.127,3.661-1.658,5.466-1.638c0,0,5.215,0.351,5.215,0.351
						c0.729,0.048,0.681,1.157-0.054,1.138l-5.209-0.17c-1.186,0.011-2.484-0.1-3.542,0.321c-0.259,0.137-0.376,0.267-0.475,0.536
						C205.581,261.41,204.169,260.87,204.528,259.945L204.528,259.945z"/>
				</g>
				<path style="fill:none;stroke:#462837;stroke-width:1.5;stroke-linejoin:round;stroke-miterlimit:10;" d="M207.477,262.941
					c-1.673-0.958-2.514-2.035-2.249-2.727"/>
				<g>
					<path style="fill:#462837;" d="M204.945,264.043c0.79-2.066,3.422-1.998,5.211-2.007c1.731,0.027,3.421,0.162,5.115,0.278
						c0.314,0.021,0.551,0.293,0.529,0.607c-0.021,0.307-0.286,0.54-0.59,0.53c-2.469-0.042-5.035-0.304-7.436,0.135
						c-0.763,0.166-1.273,0.471-1.413,0.954C206.046,265.532,204.572,265.017,204.945,264.043L204.945,264.043z"/>
				</g>
				<path style="fill:none;stroke:#462837;stroke-width:1.5;stroke-linejoin:round;stroke-miterlimit:10;" d="M208.637,266.892
					c-1.982-0.897-3.194-2.002-2.984-2.599"/>
				<path style="fill:none;stroke:#462837;stroke-width:1.5;stroke-linejoin:round;stroke-miterlimit:10;" d="M206.701,256.859
					c-0.098,0.488,0.404,1.245,1.439,2.079"/>
				<path style="fill:none;stroke:#462837;stroke-width:1.5;stroke-linecap:round;stroke-linejoin:round;stroke-miterlimit:10;" d="
					M206.664,268.306c-0.042,1.309,5.514,4.075,9.022,5.023c5.131,1.387,8.949,1.943,11.984,2.208c1.594,0.14,3.209,0.258,4.83,0.36
					c1.453-8.661,2.06-18.565,2.312-23.25c-2.795,0.588-4.58,0.958-4.58,0.958c-1.347-2.334-4.314-3.698-8.897-4.38
					c-5.81-0.865-8.876,0.376-8.839,1.359c0.109,2.853,6.529,2.707,6.578,3.887c0.054,1.288-1.947,2.094-3.953,1.752
					c-5.8-0.988-8.143-0.754-8.422,0.636"/>
				<g>
					<path style="fill:#462837;" d="M214.635,267.613c-2.295-0.175-4.916-0.65-7.005,0.397c-0.186,0.148-0.216,0.235-0.217,0.32
						c-0.019,0.998-1.544,0.95-1.499-0.049c0.495-3.251,6.618-2.065,8.881-1.797C215.515,266.604,215.363,267.698,214.635,267.613
						L214.635,267.613z"/>
				</g>
				<g>
					<path style="fill:#462837;" d="M230.567,256.206c0.161,5.47-0.481,10.974-1.863,16.268c-0.053,0.191-0.25,0.303-0.44,0.25
						c-0.173-0.048-0.281-0.217-0.26-0.39c0.731-5.384,1.351-10.738,1.849-16.148C229.887,255.757,230.558,255.774,230.567,256.206
						L230.567,256.206z"/>
				</g>
			</g>
		</g>
	</g>
	<g>
		<path style="fill:#D6A9F7;" d="M234.87,321.063H111.563c-3.522,0-6.378-2.855-6.378-6.378v-4.252c0-3.522,2.855-6.378,6.378-6.378
			H234.87c3.522,0,6.378,2.855,6.378,6.378v4.252C241.248,318.208,238.393,321.063,234.87,321.063z"/>
		<path style="opacity:0.5;fill:#D6A9F7;" d="M234.87,316.811H111.563c-3.522,0-6.378-2.855-6.378-6.378v4.252
			c0,3.523,2.855,6.378,6.378,6.378H234.87c3.522,0,6.378-2.855,6.378-6.378v-4.252C241.248,313.956,238.393,316.811,234.87,316.811
			z"/>
		<path style="fill:none;stroke:#462837;stroke-width:1.8;stroke-linecap:round;stroke-linejoin:round;stroke-miterlimit:10;" d="
			M234.87,321.063H111.563c-3.522,0-6.378-2.855-6.378-6.378v-4.252c0-3.522,2.855-6.378,6.378-6.378H234.87
			c3.522,0,6.378,2.855,6.378,6.378v4.252C241.248,318.208,238.393,321.063,234.87,321.063z"/>
		<g>
			<rect x="128.571" y="397.599" style="fill:#C8C8C8;" width="89.291" height="8.504"/>
			
				<rect x="128.571" y="397.599" style="fill:none;stroke:#462837;stroke-width:1.8;stroke-linecap:round;stroke-linejoin:round;stroke-miterlimit:10;" width="89.291" height="8.504"/>
			<path style="fill:#C8C8C8;" d="M132.823,440.118h-8.504c-1.174,0-2.126-0.952-2.126-2.126V321.063h12.756v116.929
				C134.949,439.166,133.997,440.118,132.823,440.118z"/>
			<path style="fill:#C8C8C8;" d="M222.114,440.118h-8.504c-1.174,0-2.126-0.952-2.126-2.126V321.063h12.756v116.929
				C224.24,439.166,223.289,440.118,222.114,440.118z"/>
			<rect x="122.193" y="321.063" style="opacity:0.5;fill:#C8C8C8;" width="12.756" height="4.252"/>
			<rect x="211.484" y="321.063" style="opacity:0.5;fill:#C8C8C8;" width="12.756" height="4.252"/>
			<path style="fill:none;stroke:#462837;stroke-width:1.8;stroke-linecap:round;stroke-linejoin:round;stroke-miterlimit:10;" d="
				M132.823,440.118h-8.504c-1.174,0-2.126-0.952-2.126-2.126V321.063h12.756v116.929
				C134.949,439.166,133.997,440.118,132.823,440.118z"/>
			<path style="fill:none;stroke:#462837;stroke-width:1.8;stroke-linecap:round;stroke-linejoin:round;stroke-miterlimit:10;" d="
				M222.114,440.118h-8.504c-1.174,0-2.126-0.952-2.126-2.126V321.063h12.756v116.929
				C224.24,439.166,223.289,440.118,222.114,440.118z"/>
		</g>
		<g>
			<path style="fill:#462837;" d="M132.398,443.307h-7.654c-0.822,0-1.488-0.666-1.488-1.488v-1.701h10.63v1.701
				C133.886,442.641,133.22,443.307,132.398,443.307z"/>
			<path style="fill:#462837;" d="M221.689,443.307h-7.654c-0.822,0-1.488-0.666-1.488-1.488v-1.701h10.63v1.701
				C223.177,442.641,222.511,443.307,221.689,443.307z"/>
		</g>
	</g>
	<g>
		<g>
			<g>
				<path style="fill:#FAFAFA;" d="M210.147,246.489c-2.198,16.314-8.698,21.217-6.978,49.063c0.13,2.099,1.876,5.746,0.532,8.504
					h-8.504c-7.325-5.516-8.217-29.167-8.217-36.09c0-8.615-2.126-14.882-2.126-14.882L210.147,246.489z"/>
				<path style="opacity:0.25;fill:#C8C8C8;" d="M210.147,246.489c-2.198,16.314-8.698,21.217-6.978,49.063
					c0.13,2.099,1.876,5.746,0.532,8.504h-8.504c-7.325-5.516-8.217-29.167-8.217-36.09c0-8.615-2.126-14.882-2.126-14.882
					L210.147,246.489z"/>
				<g>
					
						<path style="fill:none;stroke:#462837;stroke-width:1.8;stroke-linecap:round;stroke-linejoin:round;stroke-miterlimit:10;" d="
						M210.147,246.489c-2.198,16.314-8.698,21.217-6.978,49.063c0.13,2.099,1.876,5.746,0.532,8.504h-8.504
						c-7.325-5.516-8.217-29.167-8.217-36.09c0-8.615-2.126-14.882-2.126-14.882L210.147,246.489z"/>
					<g>
						<path style="fill:#462837;" d="M202.093,299.72c0.371,1.509,0.689,3.179-0.171,4.621c-0.139,0.206-0.419,0.262-0.625,0.123
							c-0.237-0.157-0.262-0.492-0.07-0.695c0.658-1.108,0.459-2.64,0.203-3.883C201.328,299.465,201.985,299.301,202.093,299.72
							L202.093,299.72z"/>
					</g>
					<g>
						<path style="fill:#462837;" d="M199.967,299.72c0.371,1.509,0.689,3.179-0.171,4.621c-0.139,0.206-0.419,0.262-0.625,0.123
							c-0.237-0.157-0.262-0.492-0.07-0.695c0.658-1.108,0.459-2.64,0.203-3.883C199.202,299.465,199.859,299.301,199.967,299.72
							L199.967,299.72z"/>
					</g>
				</g>
			</g>
			<g>
				<path style="fill:#FAFAFA;" d="M183.414,269.963c0,0,1.929,3.16,1.929,8.58c0,7.992-2.456,15.1-12.083,18.34
					c6.193,0.702,12.193-0.764,12.193,7.172h-31.89c-13.438-6.014-19.372-23.783-17.419-34.055L183.414,269.963z"/>
				<path style="opacity:0.25;fill:#C8C8C8;" d="M183.414,269.963c0,0,1.929,3.16,1.929,8.58c0,7.992-2.456,15.1-12.083,18.34
					c6.193,0.702,12.193-0.764,12.193,7.172h-31.89c-13.438-6.014-19.372-23.783-17.419-34.055L183.414,269.963z"/>
				<g>
					<g>
						<path style="fill:#462837;" d="M183.871,269.684c3.291,6.003,2.904,14.448-0.264,20.368
							c-2.549,4.469-7.384,7.145-12.297,8.223c-3.877,0.906-7.829,1.106-11.733,1.001c-0.296-0.008-0.529-0.254-0.521-0.55
							c0.007-0.286,0.239-0.514,0.521-0.521c3.841-0.194,7.678-0.537,11.333-1.509c5.003-1.261,9.643-4.009,11.803-8.749
							c2.274-5.453,2.669-12.25,0.243-17.705C182.587,269.639,183.495,269.061,183.871,269.684L183.871,269.684z"/>
					</g>
					
						<path style="fill:none;stroke:#462837;stroke-width:1.8;stroke-linecap:round;stroke-linejoin:round;stroke-miterlimit:10;" d="
						M185.453,304.055h-31.89c-13.438-6.014-19.372-23.783-17.419-34.055h47.27"/>
					
						<path style="fill:none;stroke:#462837;stroke-width:1.8;stroke-linecap:round;stroke-linejoin:round;stroke-miterlimit:10;" d="
						M173.263,296.89c6.192,0.701,12.189-0.769,12.189,7.165"/>
					<g>
						<g>
							<path style="fill:#462837;" d="M182.639,299.593c0.967,1.329,1.093,2.91,1.132,4.483c0,0.249-0.202,0.45-0.451,0.45
								c-0.263,0.001-0.472-0.229-0.448-0.491c0.043-1.324-0.027-2.906-0.772-4.021
								C181.822,299.668,182.372,299.239,182.639,299.593L182.639,299.593z"/>
						</g>
						<g>
							<path style="fill:#462837;" d="M180.513,299.593c0.968,1.329,1.093,2.91,1.132,4.483c0,0.249-0.202,0.45-0.451,0.45
								c-0.263,0.001-0.472-0.229-0.448-0.491c0.043-1.324-0.027-2.906-0.772-4.021
								C179.696,299.668,180.246,299.239,180.513,299.593L180.513,299.593z"/>
						</g>
					</g>
				</g>
			</g>
			<g>
				<path style="fill:#FAFAFA;" d="M129.785,278.11c-3.134,3.484-3.328,8.819-3.34,14.933c-0.001,0.698,0.656,1.215,1.332,1.041
					c2.323-0.6,5.485-2.738,7.323-7.469v-8.504H129.785z"/>
				<path style="opacity:0.25;fill:#C8C8C8;" d="M129.785,278.11c-0.421,0.468-0.781,0.976-1.103,1.508
					c0.204,3.586,0.99,7.287,2.452,10.212c0,0-0.908,3.157-3.357,4.254c2.323-0.6,5.485-2.739,7.323-7.469v-8.504H129.785z"/>
				<path style="fill:none;stroke:#462837;stroke-width:1.8;stroke-linecap:round;stroke-linejoin:round;stroke-miterlimit:10;" d="
					M129.785,278.11c-3.134,3.484-3.328,8.819-3.34,14.933c-0.001,0.698,0.656,1.215,1.332,1.041c2.323-0.6,5.485-2.738,7.323-7.469
					v-8.504H129.785z"/>
			</g>
			<g>
				<path style="fill:#FAFAFA;" d="M183.082,216.68c-12.413,8.976-20.344,10.48-31.542,21.969
					c-9.985,10.245-19.41,18.912-21.774,31.35c-1.953,10.272,3.982,28.042,17.419,34.055h31.89c0-7.936-6-6.471-12.193-7.172
					c9.626-3.239,12.083-10.348,12.083-18.34c0,0,9.501,0,18.612-6.418c8.559-6.028,12.801-15.774,14.697-26.975L183.082,216.68z"/>
				<path style="opacity:0.25;fill:#C8C8C8;" d="M172.761,223.299c1.6,4.056,3.643,7.968,6.171,11.578
					c7.686,10.977,19.088,18.228,30.381,21.437c1.331-3.478,2.295-7.227,2.961-11.163l-29.191-28.471
					C179.297,219.417,175.932,221.456,172.761,223.299z"/>
				<path style="fill:#462837;" d="M135.737,256.329c0.162-0.125,2.694-2.054,5.102-2.376c2.488-0.333,5.889,2.399,8.876,2.399
					c2.986,0,9.539-3.559,13.272-7.126c3.733-3.567,1.161-9.208,1.161-13.106c0-3.314,3.651-7.645,5.748-11.168
					c-6.06,3.486-11.619,6.785-18.356,13.698C145.619,244.724,139.908,250.249,135.737,256.329z"/>
				<g>
					<g>
						<path style="fill:#462837;" d="M177.493,269.684c3.291,6.003,2.905,14.448-0.264,20.368
							c-2.549,4.469-7.384,7.145-12.297,8.223c-3.877,0.906-7.829,1.106-11.733,1.001c-0.296-0.008-0.529-0.254-0.521-0.55
							c0.007-0.286,0.24-0.514,0.521-0.521c3.841-0.194,7.678-0.537,11.333-1.509c5.003-1.261,9.643-4.009,11.804-8.749
							c2.274-5.453,2.669-12.25,0.243-17.705C176.209,269.639,177.117,269.061,177.493,269.684L177.493,269.684z"/>
					</g>
					<path style="fill:none;stroke:#462837;stroke-width:1.8;stroke-linejoin:round;stroke-miterlimit:10;" d="M197.576,272.126
						c-9.112,6.418-18.612,6.418-18.612,6.418"/>
					
						<path style="fill:none;stroke:#462837;stroke-width:1.8;stroke-linecap:round;stroke-linejoin:round;stroke-miterlimit:10;" d="
						M179.075,304.055h-31.89c-13.438-6.014-19.372-23.783-17.419-34.055c2.364-12.438,11.789-21.105,21.774-31.35
						c11.198-11.489,19.129-12.994,31.542-21.969l29.191,28.471c-1.895,11.201-6.138,20.947-14.697,26.975"/>
					
						<path style="fill:none;stroke:#462837;stroke-width:1.8;stroke-linecap:round;stroke-linejoin:round;stroke-miterlimit:10;" d="
						M166.885,296.89c6.192,0.701,12.189-0.769,12.189,7.165"/>
					<g>
						<g>
							<path style="fill:#462837;" d="M176.261,299.593c0.967,1.329,1.093,2.91,1.132,4.483c0,0.249-0.202,0.45-0.451,0.45
								c-0.263,0.001-0.472-0.229-0.448-0.491c0.043-1.324-0.027-2.906-0.772-4.021
								C175.444,299.668,175.994,299.239,176.261,299.593L176.261,299.593z"/>
						</g>
						<g>
							<path style="fill:#462837;" d="M174.135,299.593c0.967,1.329,1.093,2.91,1.132,4.483c0,0.249-0.202,0.45-0.451,0.45
								c-0.263,0.001-0.472-0.229-0.449-0.491c0.043-1.324-0.027-2.906-0.772-4.021
								C173.318,299.668,173.868,299.239,174.135,299.593L174.135,299.593z"/>
						</g>
					</g>
				</g>
			</g>
			<g>
				<path style="fill:#FAFAFA;" d="M202.554,253.081c-2.724,11.67-7.229,18.737-5.763,42.47c0.13,2.099,1.877,5.746,0.531,8.504
					h-8.504c-7.325-5.516-8.217-29.167-8.217-36.09c0-8.615-2.126-14.882-2.126-14.882L202.554,253.081z"/>
				<path style="opacity:0.25;fill:#C8C8C8;" d="M202.375,253.822c0.06-0.246,0.12-0.491,0.178-0.741l-1.829,0
					C201.273,253.34,201.824,253.582,202.375,253.822z"/>
				<g>
					<g>
						<path style="fill:#462837;" d="M179.702,267.965c0.041-4.927-0.509-9.95-1.88-14.686c-0.253-0.839,1.019-1.252,1.302-0.415
							c1.568,4.892,2.27,9.978,2.379,15.101c0.009,0.497-0.387,0.907-0.885,0.916C180.109,268.89,179.692,268.473,179.702,267.965
							L179.702,267.965z"/>
					</g>
					
						<path style="fill:none;stroke:#462837;stroke-width:1.8;stroke-linecap:round;stroke-linejoin:round;stroke-miterlimit:10;" d="
						M198.504,267.965c-1.518,6.511-2.52,14.525-1.713,27.586c0.13,2.099,1.877,5.746,0.531,8.504h-8.504
						c-7.325-5.516-8.217-29.167-8.217-36.09"/>
					<g>
						<path style="fill:#462837;" d="M203.219,253.238c-1.103,5.078-2.769,9.965-3.838,14.931c-0.105,0.486-0.584,0.795-1.069,0.69
							c-0.486-0.105-0.795-0.583-0.69-1.069c1.242-5.07,3.047-9.907,4.267-14.862C202.1,252.076,203.405,252.372,203.219,253.238
							L203.219,253.238z"/>
					</g>
					<g>
						<path style="fill:#462837;" d="M195.715,299.72c0.371,1.509,0.689,3.179-0.171,4.621c-0.139,0.206-0.419,0.262-0.625,0.123
							c-0.237-0.157-0.262-0.492-0.07-0.695c0.658-1.108,0.459-2.64,0.203-3.883C194.95,299.465,195.607,299.301,195.715,299.72
							L195.715,299.72z"/>
					</g>
					<g>
						<path style="fill:#462837;" d="M193.589,299.72c0.371,1.509,0.689,3.179-0.171,4.621c-0.139,0.206-0.419,0.262-0.625,0.123
							c-0.237-0.157-0.262-0.492-0.07-0.695c0.658-1.108,0.459-2.64,0.203-3.883C192.824,299.465,193.481,299.301,193.589,299.72
							L193.589,299.72z"/>
					</g>
				</g>
			</g>
		</g>
		<g>
			<path style="fill:#F3E1FF;" d="M238.852,250.436c-14.573,10.204-44.614,3.112-59.921-18.748
				c-15.307-21.86-13.184-54.639,1.389-64.844L238.852,250.436z"/>
			<path style="fill:none;stroke:#462837;stroke-width:1.8;stroke-linecap:round;stroke-linejoin:round;stroke-miterlimit:10;" d="
				M238.852,250.436c-14.573,10.204-44.614,3.112-59.921-18.748c-15.307-21.86-13.184-54.639,1.389-64.844L238.852,250.436z"/>
			
				<ellipse transform="matrix(0.8192 -0.5736 0.5736 0.8192 -81.7679 157.9466)" style="fill:#F3E1FF;" cx="209.587" cy="208.64" rx="34.016" ry="51.024"/>
			<path style="opacity:0.5;fill:#F3E1FF;" d="M238.853,239.807c-15.389,10.775-40.967,0.798-57.13-22.286
				c-7.035-10.046-11.124-20.919-12.233-30.884c-1.521,12.413,2.588,27.74,12.233,41.514c16.163,23.083,41.741,33.061,57.13,22.285
				c8.691-6.086,12.27-17.49,10.831-30.422C248.655,228.402,245.058,235.461,238.853,239.807z"/>
			
				<ellipse transform="matrix(0.8192 -0.5736 0.5736 0.8192 -81.7679 157.9466)" style="fill:none;stroke:#462837;stroke-width:1.8;stroke-linecap:round;stroke-linejoin:round;stroke-miterlimit:10;" cx="209.587" cy="208.64" rx="34.016" ry="51.024"/>
			
				<line style="fill:none;stroke:#462837;stroke-width:1.2;stroke-linecap:round;stroke-linejoin:round;stroke-miterlimit:10;" x1="180.321" y1="166.844" x2="238.852" y2="250.436"/>
		</g>
		<g>
			<g>
				<path style="fill:#462837;" d="M218.413,194.146c-2-3.214-2.156-5.837-0.753-9.768c1.855-5.199,9.134-19.129,12.808-19.129
					c2.719,0,8.929,3.948,11.63,17.188c2.538,12.44-2.515,19.529-5.979,21.478c-3.247,1.826-5.651,0-5.651,0L218.413,194.146z"/>
				<path style="opacity:0.25;fill:#462837;" d="M218.413,194.146c-2-3.214-2.156-5.837-0.753-9.768
					c1.855-5.199,9.134-19.129,12.808-19.129c2.719,0,8.929,3.948,11.63,17.188c2.538,12.44-2.515,19.529-5.979,21.478
					c-3.247,1.826-5.651,0-5.651,0L218.413,194.146z"/>
				<path style="fill:none;stroke:#462837;stroke-width:1.8;stroke-linecap:round;stroke-linejoin:round;stroke-miterlimit:10;" d="
					M218.413,194.146c-2-3.214-2.156-5.837-0.753-9.768c1.855-5.199,9.134-19.129,12.808-19.129c2.719,0,8.929,3.948,11.63,17.188
					c2.538,12.44-2.515,19.529-5.979,21.478c-3.247,1.826-5.651,0-5.651,0L218.413,194.146z"/>
			</g>
			<path style="fill:#FAFAFA;" d="M242.529,216.651c0.128-5.672-0.25-12.185-2.647-17.162c-4.064-8.438-13.689-13.363-25.316-13.363
				c-11.416,0-21.195,3.566-27.497,13.363c-6.302,9.797-4.314,25.976,0.307,32.452c7.581,10.623,19.466,13.975,34.615,13.107
				c9.83-0.563,14.171-3.141,16.399-7.604c3.847,0,7.502-2.366,7.502-10.221C245.892,218.881,242.529,216.651,242.529,216.651z"/>
			<path style="fill:#462837;" d="M214.987,186.137l-0.011,0.069c-1.742,6.968,1.633,11.177,8.02,15.739
				c6.387,4.562,5.621,12.246,10.781,14.688c5.111,2.418,8.598-1.577,8.598-6.639l0,0c-0.292-3.714-1.001-7.407-2.493-10.505
				C235.867,191.154,226.424,186.256,214.987,186.137z"/>
			<g>
				<path style="fill:#462837;" d="M215.205,212.977c0,2.204-1.501,3.68-3.352,3.68c-1.851,0-3.352-1.476-3.352-3.68
					s1.501-4.301,3.352-4.301C213.704,208.675,215.205,210.773,215.205,212.977z"/>
				<path style="opacity:0.5;fill:#462837;" d="M215.205,212.977c0,2.204-1.501,3.68-3.352,3.68c-1.851,0-3.352-1.476-3.352-3.68
					s1.501-4.301,3.352-4.301C213.704,208.675,215.205,210.773,215.205,212.977z"/>
				<path style="opacity:0.5;fill:#FF97B5;" d="M213.404,220.205c0,1.959-1.787,3.547-3.991,3.547c-2.204,0-3.991-1.588-3.991-3.547
					c0-1.959,1.787-3.548,3.991-3.548C211.618,216.657,213.404,218.245,213.404,220.205z"/>
			</g>
			<g>
				<path style="opacity:0.5;fill:#462837;" d="M233.995,212.977c0,2.204,1.276,3.68,2.849,3.68s2.849-1.476,2.849-3.68
					s-1.276-4.301-2.849-4.301S233.995,210.773,233.995,212.977z"/>
				<path style="opacity:0.5;fill:#FF97B5;" d="M235.526,220.205c0,1.959,1.519,3.547,3.392,3.547c1.873,0,3.392-1.588,3.392-3.547
					c0-1.959-1.519-3.548-3.392-3.548C237.044,216.657,235.526,218.245,235.526,220.205z"/>
			</g>
			<g>
				<g>
					<path style="fill:#462837;" d="M209.741,238.344c-4.477,0.146-9.616-1.986-10.779-6.72c-0.43-1.453-0.554-2.94-0.558-4.401
						c-0.001-0.377,0.304-0.684,0.682-0.685c0.379-0.002,0.686,0.308,0.685,0.685c-0.046,6.359,3.751,9.564,9.97,9.32
						C210.937,236.546,210.945,238.34,209.741,238.344L209.741,238.344z"/>
				</g>
				<path style="fill:none;stroke:#462837;stroke-width:1.8;stroke-linecap:round;stroke-linejoin:round;stroke-miterlimit:10;" d="
					M238.39,237.444c-2.227,4.463-6.569,7.041-16.399,7.604c-15.149,0.868-27.034-2.485-34.615-13.107
					c-4.622-6.476-6.609-22.655-0.308-32.452c6.302-9.796,16.081-13.363,27.497-13.363c11.628,0,21.252,4.925,25.317,13.363
					c2.397,4.977,2.775,11.49,2.647,17.162c0,0,3.364,2.23,3.364,10.573C245.892,235.079,242.237,237.444,238.39,237.444
					c-5.681,0-8.08-10.221-10.812-10.221c-2.671,0-9,10.221-17.837,10.221"/>
			</g>
			<g>
				<path style="fill:#462837;stroke:#462837;stroke-width:0.6;stroke-miterlimit:10;" d="M227.578,221.564
					c2.521,0,4.38-1.934,4.07-3.286c-0.243-1.061-0.928-1.459-3.256-1.598c-3.364-0.201-6.105,0.211-6.105,1.598
					C222.287,219.666,223.777,221.564,227.578,221.564z"/>
				
					<line style="fill:none;stroke:#462837;stroke-width:1.8;stroke-linecap:round;stroke-linejoin:round;stroke-miterlimit:10;" x1="227.578" y1="221.564" x2="227.578" y2="227.223"/>
				<g>
					<path style="fill:#462837;" d="M215.928,217.466c5.17-2.573,14.806-3.904,19.544,0.051c0.146,0.131,0.16,0.355,0.029,0.502
						c-0.136,0.154-0.362,0.153-0.511,0.025c-4.92-3.021-13.487-1.823-18.724,0.051
						C215.862,218.304,215.521,217.692,215.928,217.466L215.928,217.466z"/>
				</g>
			</g>
			<path style="fill:#FAFAFA;" d="M186.916,204.977c0,0-2.597,0.763-6.105-1.063c-3.743-1.949-9.201-9.038-6.46-21.478
				c2.918-13.24,9.627-17.188,12.565-17.188c3.97,0,11.834,13.93,13.838,19.129c1.515,3.931,1.347,6.554-0.814,9.768
				C199.94,194.146,191.994,195.724,186.916,204.977z"/>
			<path style="opacity:0.25;fill:#FF97B5;" d="M195.802,195.822c-1.853-1.477-1.548-3.126,0.912-2.734
				c-0.738-1.827-1.183-5.187-2.065-10.949c-1.1-7.195-5.943-13.957-8.441-14.567c-1.082-0.264-7.87,2.427-11.856,14.864
				c-2.742,12.44,2.717,19.529,6.46,21.478c3.508,1.826,6.105,1.063,6.105,1.063c2.697-4.915,6.195-7.651,8.89-9.149
				L195.802,195.822z"/>
			<g>
				<g>
					<path style="fill:#462837;" d="M199.291,193.523c0.654-0.689,3.722-2.075,3.863-0.46c-0.018,0.355-0.304,0.628-0.647,0.648
						c-0.558,0.058-1.098,0.322-1.536,0.684c-0.141,0.115-0.311,0.279-0.382,0.374C199.75,195.813,198.283,194.407,199.291,193.523
						L199.291,193.523z"/>
				</g>
				<path style="fill:none;stroke:#462837;stroke-width:1.8;stroke-linecap:round;stroke-linejoin:round;stroke-miterlimit:10;" d="
					M180.811,203.914c-3.743-1.949-9.201-9.038-6.46-21.478c2.918-13.24,9.627-17.188,12.565-17.188
					c3.97,0,11.834,13.93,13.838,19.129c1.515,3.931,1.347,6.554-0.814,9.768"/>
				<g>
					<path style="fill:#462837;" d="M187.109,205.633c-2.293,0.58-4.63,0.054-6.713-0.92c-0.449-0.214-0.64-0.751-0.426-1.2
						c0.222-0.471,0.806-0.654,1.257-0.396c1.271,0.715,2.676,1.202,4.131,1.279c0.498,0.028,1.027,0,1.437-0.087
						C187.639,204.14,187.936,205.404,187.109,205.633L187.109,205.633z"/>
				</g>
			</g>
			<g>
				<path style="fill:#C8C8C8;" d="M216.735,227.223c0,0.352-0.285,0.638-0.638,0.638c-0.352,0-0.638-0.285-0.638-0.638
					c0-0.352,0.285-0.638,0.638-0.638C216.45,226.586,216.735,226.871,216.735,227.223z"/>
				<path style="fill:#C8C8C8;" d="M216.735,225.098c0,0.352-0.285,0.638-0.638,0.638c-0.352,0-0.638-0.286-0.638-0.638
					c0-0.352,0.285-0.638,0.638-0.638C216.45,224.46,216.735,224.745,216.735,225.098z"/>
				<circle style="fill:#C8C8C8;" cx="213.971" cy="227.223" r="0.638"/>
				<path style="fill:#C8C8C8;" d="M215.46,229.35c0-0.352,0.285-0.638,0.638-0.638c0.352,0,0.638,0.286,0.638,0.638
					c0,0.352-0.285,0.638-0.638,0.638C215.745,229.987,215.46,229.702,215.46,229.35z"/>
				<circle style="fill:#C8C8C8;" cx="218.223" cy="227.223" r="0.638"/>
			</g>
			<g>
				<circle style="fill:#C8C8C8;" cx="235.231" cy="227.223" r="0.638"/>
				<circle style="fill:#C8C8C8;" cx="235.231" cy="225.098" r="0.638"/>
				<circle style="fill:#C8C8C8;" cx="233.105" cy="227.223" r="0.638"/>
				<circle style="fill:#C8C8C8;" cx="235.231" cy="229.35" r="0.638"/>
				<circle style="fill:#C8C8C8;" cx="237.357" cy="227.223" r="0.638"/>
			</g>
		</g>
	</g>
	<g>
		<ellipse style="opacity:0.25;fill:#C8C8C8;" cx="232.744" cy="443.307" rx="127.559" ry="14.173"/>
		<g>
			<g>
				<path style="fill:#734141;" d="M376.876,88.607c-14.649-40.104-57.082-38.362-64.502-10.252
					c29.86,8.443,42.916,52.423,45.638,91.041c2.508,35.585-0.464,58.664-5.717,74.141c-0.302,0.89,0.849,1.559,1.448,0.834
					c2.855-3.45,5.238-7.863,7.192-12.869c-0.756,4.115-1.438,7.239-1.855,9.044c-0.166,0.72,0.601,1.283,1.25,0.931
					C389.194,225.856,399.599,150.813,376.876,88.607z"/>
				<g>
					
						<path style="fill:none;stroke:#462837;stroke-width:1.8;stroke-linecap:round;stroke-linejoin:round;stroke-miterlimit:10;" d="
						M359.082,240.545c-0.166,0.72,0.6,1.284,1.25,0.932c28.862-15.622,39.267-90.665,16.544-152.87
						c-14.649-40.104-57.083-38.362-64.501-10.252c29.86,8.443,42.916,52.423,45.638,91.041c2.507,35.572-0.462,58.647-5.711,74.124
						c-0.304,0.896,0.856,1.562,1.459,0.832c2.846-3.443,5.224-7.843,7.174-12.834"/>
					<g>
						<path style="fill:#462837;" d="M365.648,187.077c0.188,18.032-1.835,36.06-5.689,53.67c-0.27,1.131-1.997,0.781-1.756-0.394
							c3.006-13.083,4.881-26.442,5.718-39.84c0.255-4.469,0.371-8.945,0.361-13.42
							C364.269,186.219,365.635,186.166,365.648,187.077L365.648,187.077z"/>
					</g>
					<g>
						<path style="fill:none;stroke:#462837;stroke-width:0.45;stroke-miterlimit:10;" d="M312.375,78.355
							c15.428-17.741,45.213-23.331,64.143,31.44c17.758,51.381,6.422,97.491,6.422,97.491"/>
						<path style="fill:none;stroke:#462837;stroke-width:0.45;stroke-miterlimit:10;" d="M350.806,70.329
							c30.482,29.378,36.538,116.755,19.133,163.028"/>
						<path style="fill:none;stroke:#462837;stroke-width:0.45;stroke-miterlimit:10;" d="M312.375,78.355
							c13.46-8.863,36.124-11.046,48.276,51.107"/>
						<path style="fill:none;stroke:#462837;stroke-width:0.45;stroke-miterlimit:10;" d="M379.189,159.271
							c0,51.48-20.529,83.034-20.529,83.034"/>
						<path style="fill:none;stroke:#462837;stroke-width:0.45;stroke-miterlimit:10;" d="M357.393,162.245
							c2.681,21.797-1.391,51.39-6.488,69.69"/>
						<path style="fill:none;stroke:#462837;stroke-width:0.45;stroke-miterlimit:10;" d="M379.682,96.88
							c11.775,42.805,20.208,94.13,4.311,123.063"/>
					</g>
				</g>
			</g>
			<g>
				<ellipse style="fill:#D6A9F7;" cx="319.081" cy="78.355" rx="10.63" ry="7.441"/>
				<path style="opacity:0.5;fill:#D6A9F7;" d="M319.081,85.796c-4.951,0-9.1-2.373-10.281-5.581
					c1.182-3.208,5.33-5.581,10.281-5.581c4.951,0,9.1,2.373,10.281,5.581C328.181,83.423,324.032,85.796,319.081,85.796z"/>
				
					<ellipse style="fill:none;stroke:#462837;stroke-width:1.7748;stroke-linecap:round;stroke-linejoin:round;stroke-miterlimit:10;" cx="319.081" cy="78.355" rx="10.63" ry="7.441"/>
			</g>
			<g>
				<path style="fill:#D6A9F7;" d="M322.448,420.382c0,0-0.04-5.479-0.442-12.618l-25.805,12.033
					c1.745,6.593,2.73,10.687,2.73,10.687s-2.42,6.98-0.121,11.52c0,0,11.963-2.402,24.145-11.216
					C322.854,427.767,322.7,424.238,322.448,420.382z"/>
				<path style="opacity:0.5;fill:#D6A9F7;" d="M298.931,430.484c0,0-0.433,1.257-0.758,3.045
					c13.129-1.285,21.521-6.685,24.518-8.952c-0.07-1.351-0.147-2.74-0.242-4.195c0,0-0.04-5.479-0.442-12.618l-25.805,12.033
					C297.946,426.39,298.931,430.484,298.931,430.484z"/>
				<path style="fill:#FAFAFA;" d="M303.342,438.512c-2.16-2.032-4.436-2.485-5.473-2.584c-0.141,2.01,0.011,4.24,0.941,6.075
					c0,0,11.963-2.402,24.145-11.216c-0.025-0.762-0.054-1.557-0.087-2.381C315.753,433.486,308.019,436.889,303.342,438.512z"/>
				<g>
					
						<path style="fill:none;stroke:#462837;stroke-width:1.8;stroke-linecap:round;stroke-linejoin:round;stroke-miterlimit:10;" d="
						M322.448,420.382c0,0-0.04-5.479-0.442-12.618l-25.805,12.033c1.745,6.593,2.73,10.687,2.73,10.687s-2.42,6.98-0.121,11.52
						c0,0,11.963-2.402,24.145-11.216C322.854,427.767,322.7,424.238,322.448,420.382z"/>
					
						<path style="fill:none;stroke:#462837;stroke-width:0.9;stroke-linecap:round;stroke-linejoin:round;stroke-miterlimit:10;" d="
						M322.867,428.406c-7.115,5.079-14.849,8.483-19.525,10.106c-2.16-2.032-4.436-2.485-5.473-2.584"/>
				</g>
			</g>
			<g>
				<path style="fill:#9FAAFC;" d="M297.373,430.428c-0.696-2.84-4.985-20.134-11.114-39.833c-1.589-5.115-1.86-10.553-0.785-15.727
					c1.913-9.204,5.408-26.37,9.234-40.219h41.676v5.886c-3.74,12.009-14.269,40.819-15.491,44.49
					c2.864,13.295,3.054,35.347,3.054,35.347C319.757,424.926,304.909,430.428,297.373,430.428z"/>
				<path style="fill:none;stroke:#462837;stroke-width:1.8;stroke-linecap:round;stroke-linejoin:round;stroke-miterlimit:10;" d="
					M297.373,430.428c-0.696-2.84-4.985-20.134-11.114-39.833c-1.589-5.115-1.86-10.553-0.785-15.727
					c1.913-9.204,5.408-26.37,9.234-40.219h41.676v5.886c-3.74,12.009-14.269,40.819-15.491,44.49
					c2.864,13.295,3.054,35.347,3.054,35.347C319.757,424.926,304.909,430.428,297.373,430.428z"/>
			</g>
			<g>
				<g>
					<path style="fill:#F5C3B4;" d="M305.132,215.999v11.693c0,0-1.275,1.047-3.43,3.292c-4.163,4.338-7.039,9.739-8.425,15.589
						c-4.182,17.646-8.015,41.205-6.217,59.947c1.632,17.008,12.756,34.016,12.756,34.016h36.567c0,0,14.521-8.222,14.521-25.024
						c0-16.797-8.917-33.398-10.694-51.596c-0.809-8.28-0.544-25.177-11.693-36.224v-11.693H305.132z"/>
					<path style="opacity:0.5;fill:#F5C3B4;" d="M305.132,225.224c0.12-0.008,0.241-0.007,0.362-0.017
						c8.161-0.642,15.869-1.662,23.023-3.24v-5.969h-23.385V225.224z"/>
				</g>
				<g>
					
						<path style="fill:none;stroke:#462837;stroke-width:1.8;stroke-linecap:round;stroke-linejoin:round;stroke-miterlimit:10;" d="
						M305.132,215.999v11.693c0,0-1.275,1.047-3.43,3.292c-4.163,4.338-7.039,9.739-8.425,15.589
						c-4.182,17.646-8.015,41.205-6.217,59.947c1.632,17.008,12.756,34.016,12.756,34.016h36.567c0,0,14.521-8.222,14.521-25.024
						c0-16.797-8.917-33.398-10.694-51.596c-0.809-8.28-0.544-25.177-11.693-36.224v-11.693H305.132z"/>
				</g>
			</g>
			<g>
				<path style="fill:#D6A9F7;" d="M306.583,420.744c0.276,4.871,0.44,9.223,0.44,12.8c0,0-3.186,4.123-3.186,8.493
					c0,0,11.806,2.852,26.572,0.011c1.31-5.63,2.907-13.122,4.174-21.304H306.583z"/>
				<path style="opacity:0.5;fill:#D6A9F7;" d="M331.602,436.717c1.013-4.699,2.079-10.154,2.981-15.973h-27.999
					c0.276,4.871,0.44,9.223,0.44,12.8c0,0-0.773,1.003-1.557,2.54C305.466,436.083,317.4,439.364,331.602,436.717z"/>
				<path style="fill:#FAFAFA;" d="M330.409,442.048c0.161-0.691,0.329-1.432,0.497-2.176c-8.594,1.596-16.562,1.422-21.486,0.916
					c-1.138-2.853-3.099-4.22-3.955-4.705c-0.808,1.584-1.629,3.735-1.629,5.953C303.837,442.037,315.643,444.888,330.409,442.048z"
					/>
				<g>
					
						<path style="fill:none;stroke:#462837;stroke-width:1.5;stroke-linecap:round;stroke-linejoin:round;stroke-miterlimit:10;" d="
						M306.583,420.744c0.276,4.871,0.44,9.223,0.44,12.8c0,0-3.186,4.123-3.186,8.493c0,0,11.806,2.852,26.572,0.011
						c1.31-5.63,2.907-13.122,4.174-21.304H306.583z"/>
					
						<path style="fill:none;stroke:#462837;stroke-width:0.9;stroke-linecap:round;stroke-linejoin:round;stroke-miterlimit:10;" d="
						M330.906,439.871c-8.594,1.596-16.562,1.422-21.486,0.916c-1.138-2.853-3.099-4.22-3.955-4.705"/>
				</g>
			</g>
			<g>
				<path style="fill:#9FAAFC;" d="M352.404,315.511c0-5.126-0.921-10.336-2.197-15.523c-35.777,6.651-64.639,6.676-64.639,6.676
					c1.543,16.083,11.179,31.838,12.781,34.364c0.685,9.562,1.772,21.266,2.923,33.656c2.064,22.219,4.198,45.186,4.25,58.377
					c7.67,2.059,19.793,2.144,28.381,0c4.184-20.646,5.367-37.466,3.51-50.089c0.064-1.823,0.717-21.083,0.48-41.605
					C341.018,339.344,352.404,330.918,352.404,315.511z"/>
				<path style="opacity:0.5;fill:#9FAAFC;" d="M352.404,315.511c0-5.126-0.921-10.336-2.197-15.523
					c-35.777,6.651-64.639,6.676-64.639,6.676c0.758,7.897,3.467,15.705,6.218,21.917c8.246,0.38,16.625-0.086,24.465-0.978
					l-1.599-16.875l4.7,16.498c14.914-1.934,27.438-5.226,32.618-6.703C352.24,318.939,352.404,317.277,352.404,315.511z"/>
				<g>
					
						<path style="fill:none;stroke:#462837;stroke-width:1.8;stroke-linecap:round;stroke-linejoin:round;stroke-miterlimit:10;" d="
						M352.404,315.511c0-5.126-0.921-10.336-2.197-15.523c-35.777,6.651-64.639,6.676-64.639,6.676
						c1.543,16.083,11.179,31.838,12.781,34.364c0.685,9.562,1.772,21.266,2.923,33.656c2.064,22.219,4.198,45.186,4.25,58.377
						c7.67,2.059,19.793,2.144,28.381,0c4.184-20.646,5.367-37.466,3.51-50.089c0.064-1.823,0.717-21.083,0.48-41.605
						C341.018,339.344,352.404,330.918,352.404,315.511z"/>
					<g>
						
							<path style="fill:none;stroke:#462837;stroke-width:1.2;stroke-linecap:round;stroke-linejoin:round;stroke-miterlimit:10;" d="
							M289.82,306.664c0.768,8.006,3.542,15.932,6.332,22.184c0.49,1.098,0.536,2.356,0.033,3.448
							c-0.334,0.724-0.812,1.565-1.477,2.353"/>
						
							<path style="fill:none;stroke:#462837;stroke-width:1.2;stroke-linecap:round;stroke-linejoin:round;stroke-miterlimit:10;" d="
							M313.206,305.1c0,0,4.278,19.37,4.278,35.927c0,0,2.79,16.669,2.566,41.944c2.905,19.641,2.43,38.412,2.481,51.603"/>
					</g>
				</g>
			</g>
			<g>
				<path style="fill:#9FAAFC;" d="M314.651,306.475l4.7,16.498c19.659-2.549,35.179-7.461,35.179-7.461
					c0-8.331-2.126-16.668-5.374-26.87c-2.585-8.117-7.446-22.978-7.446-35.488c0-9.637-4.035-19.797-9.87-24.954
					c-0.656-1.273-1.822-2.403-1.822-2.403s-21.124-4.442-35.388,12.71c-1.215,2.439-2.172,5.023-2.811,7.721
					c-3.204,13.516-13.453,43.285-7.332,77.534c10.516,1.203,21.594,0.747,31.764-0.411L314.651,306.475z"/>
				<path style="opacity:0.5;fill:#9FAAFC;" d="M294.629,238.506c-1.215,2.439-2.172,5.023-2.811,7.721
					c-1.524,6.431-4.641,16.546-6.833,29.066c0.391,0.924,0.778,1.834,1.156,2.709c0,0,16.735-6.47,28.467-12.455l3.719,1.86
					l-0.051-37.562l-1.065-0.321c-3.749-1.132-7.682-0.925-11.946,0.242C301.584,231.746,297.923,234.544,294.629,238.506z"/>
				<path style="fill:none;stroke:#462837;stroke-width:1.8;stroke-linecap:round;stroke-linejoin:round;stroke-miterlimit:10;" d="
					M314.651,306.475l4.7,16.498c19.659-2.549,35.179-7.461,35.179-7.461c0-8.331-2.126-16.668-5.374-26.87
					c-2.585-8.117-7.446-22.978-7.446-35.488c0-9.637-4.035-19.797-9.87-24.954c-0.656-1.273-1.822-2.403-1.822-2.403
					s-21.124-4.442-35.388,12.71c-1.215,2.439-2.172,5.023-2.811,7.721c-3.204,13.516-13.453,43.285-7.332,77.534
					c10.516,1.203,21.594,0.747,31.764-0.411L314.651,306.475z"/>
			</g>
			<g>
				<path style="fill:#C8C8C8;" d="M293.339,298.332c-0.126,0-0.25-0.004-0.376-0.016l-3.586-0.314l0.196-2.241l3.586,0.314
					c0.596,0.06,1.167-0.147,1.603-0.56c0.434-0.412,0.662-0.97,0.64-1.569l-1.176-33.145c-0.075-2.111-1.718-3.841-3.822-4.025
					l-5.076-0.444c-1.57-0.124-3.001,0.923-3.331,2.464l-7.109,33.354c-0.124,0.587,0.003,1.176,0.359,1.658
					c0.356,0.482,0.882,0.776,1.479,0.829l2.739,0.24l-0.196,2.241l-2.739-0.24c-1.231-0.107-2.358-0.738-3.092-1.733
					c-0.734-0.993-1.008-2.256-0.75-3.464l7.109-33.354c0.567-2.651,3.04-4.49,5.728-4.236l5.076,0.444
					c3.234,0.283,5.76,2.943,5.875,6.188l1.176,33.145c0.043,1.235-0.445,2.43-1.342,3.28
					C295.505,297.911,294.439,298.332,293.339,298.332z"/>
				<path style="fill:none;stroke:#462837;stroke-width:1.2;stroke-linecap:round;stroke-linejoin:round;stroke-miterlimit:10;" d="
					M293.339,298.332c-0.126,0-0.25-0.004-0.376-0.016l-3.586-0.314l0.196-2.241l3.586,0.314c0.596,0.06,1.167-0.147,1.603-0.56
					c0.434-0.412,0.662-0.97,0.64-1.569l-1.176-33.145c-0.075-2.111-1.718-3.841-3.822-4.025l-5.076-0.444
					c-1.57-0.124-3.001,0.923-3.331,2.464l-7.109,33.354c-0.124,0.587,0.003,1.176,0.359,1.658c0.356,0.482,0.882,0.776,1.479,0.829
					l2.739,0.24l-0.196,2.241l-2.739-0.24c-1.231-0.107-2.358-0.738-3.092-1.733c-0.734-0.993-1.008-2.256-0.75-3.464l7.109-33.354
					c0.567-2.651,3.04-4.49,5.728-4.236l5.076,0.444c3.234,0.283,5.76,2.943,5.875,6.188l1.176,33.145
					c0.043,1.235-0.445,2.43-1.342,3.28C295.505,297.911,294.439,298.332,293.339,298.332z"/>
				<path style="fill:#D6A9F7;" d="M279.876,298.199l-1.749-0.376c-0.729-0.157-1.228-0.832-1.163-1.575l0.082-0.935
					c0.065-0.743,0.673-1.322,1.419-1.349l1.788-0.066c0.889-0.033,1.606,0.721,1.528,1.607l-0.12,1.377
					C281.583,297.768,280.746,298.386,279.876,298.199z"/>
				<path style="fill:#D6A9F7;" d="M288.59,298.982l1.788-0.066c0.746-0.028,1.354-0.606,1.419-1.349l0.082-0.935
					c0.065-0.743-0.434-1.418-1.163-1.575l-1.749-0.376c-0.87-0.187-1.707,0.431-1.784,1.317l-0.12,1.377
					C286.985,298.261,287.701,299.015,288.59,298.982z"/>
				<path style="fill:none;stroke:#462837;stroke-width:1.2;stroke-linecap:round;stroke-linejoin:round;stroke-miterlimit:10;" d="
					M279.876,298.199l-1.749-0.376c-0.729-0.157-1.228-0.832-1.163-1.575l0.082-0.935c0.065-0.743,0.673-1.322,1.419-1.349
					l1.788-0.066c0.889-0.033,1.606,0.721,1.528,1.607l-0.12,1.377C281.583,297.768,280.746,298.386,279.876,298.199z"/>
				<path style="fill:none;stroke:#462837;stroke-width:1.2;stroke-linecap:round;stroke-linejoin:round;stroke-miterlimit:10;" d="
					M288.59,298.982l1.788-0.066c0.746-0.028,1.354-0.606,1.419-1.349l0.082-0.935c0.065-0.743-0.434-1.418-1.163-1.575
					l-1.749-0.376c-0.87-0.187-1.707,0.431-1.784,1.317l-0.12,1.377C286.985,298.261,287.701,299.015,288.59,298.982z"/>
				<path style="fill:#D6A9F7;" d="M331.839,221.952c-25.276,0-39.256,9.716-45.243,31.479l-1.002-0.088
					c-3.085-0.277-5.881,1.787-6.532,4.827l-2.612,12.256l3.77,0.305l2.51-11.779c0.248-1.163,1.342-1.948,2.531-1.874l5.075,0.444
					c1.73,0.151,3.076,1.569,3.138,3.305l0.391,11.005l3.766,0.304l-0.406-11.43c-0.129-3.631-2.942-6.598-6.561-6.92l-0.264-0.023
					c5.619-19.657,18.064-28.062,41.439-28.062h3.726c0.704,0,1.276-0.571,1.276-1.276v-1.199c0-0.704-0.571-1.275-1.276-1.275
					H331.839z"/>
				<path style="fill:none;stroke:#462837;stroke-width:1.2;stroke-linecap:round;stroke-linejoin:round;stroke-miterlimit:10;" d="
					M331.839,221.952c-25.276,0-39.256,9.716-45.243,31.479l-1.002-0.088c-3.085-0.277-5.881,1.787-6.532,4.827l-2.612,12.256
					l3.77,0.305l2.51-11.779c0.248-1.163,1.342-1.948,2.531-1.874l5.075,0.444c1.73,0.151,3.076,1.569,3.138,3.305l0.391,11.005
					l3.766,0.304l-0.406-11.43c-0.129-3.631-2.942-6.598-6.561-6.92l-0.264-0.023c5.619-19.657,18.064-28.062,41.439-28.062h3.726
					c0.704,0,1.276-0.571,1.276-1.276v-1.199c0-0.704-0.571-1.275-1.276-1.275H331.839z"/>
			</g>
			<g>
				<path style="fill:#F5C3B4;" d="M374.233,184.922c-11.663,25.237-36.744,33.518-68.739,36.034
					c-3.717,0.292-7.478,0.093-11.142-0.6c-19.221-3.636-32.295-8.202-38.563-16.104c-4.888-6.161-1.85-13.438-1.85-27.541
					c0-11.71-4.841-42.461,4.911-62.326c9.308-18.962,31.352-30.03,57.982-30.03c26.146,0,48.542,8.015,62.975,30.03
					C394.24,136.4,387.481,172.645,374.233,184.922z"/>
				<path style="fill:none;stroke:#462837;stroke-width:1.8;stroke-linecap:round;stroke-linejoin:round;stroke-miterlimit:10;" d="
					M374.233,184.922c-11.663,25.237-36.744,33.518-68.739,36.034c-3.717,0.292-7.478,0.093-11.142-0.6
					c-19.221-3.636-32.295-8.202-38.563-16.104c-4.888-6.161-1.85-13.438-1.85-27.541c0-11.71-4.841-42.461,4.911-62.326
					c9.308-18.962,31.352-30.03,57.982-30.03c26.146,0,48.542,8.015,62.975,30.03C394.24,136.4,387.481,172.645,374.233,184.922z"/>
			</g>
			<g>
				<path style="fill:#734141;" d="M380.592,162.404h-4.252c-5.03-3.361-6.159-10.826-8.168-26.333
					c-0.675-5.212-4.451-12.291-12.354-17.008c-12.344-4.428-24.589,0-55.678,0c-21.401,0-29.83-4.428-38.327,0
					c-7.183,8.065-8.504,17.008-8.504,17.008c-2.897-7.77-3.457-16.974,0.154-24.331c10.263-20.905,33.951-33.385,63.369-33.385
					c30.873,0,53.75,11.016,67.992,32.739c7.398,11.282,10.428,26.518,8.536,42.899c-1.664,14.417-9.856,30.878-19.126,30.878
					L380.592,162.404z"/>
				<path style="opacity:0.5;fill:#FAFAFA;" d="M358.773,87.472c-9.259,1.49-18.449,2.805-27.129,3.786
					c-15.68,1.893-31.575,3.053-47.323,3.199c-5.547,0.01-11.147-0.058-16.727-0.362c-3.02,2.48-5.729,5.233-8.115,8.23
					c1.605,0.312,3.22,0.609,4.851,0.906c38.154,6.017,77.438,4.51,115.838,1.572C374.213,97.532,367.07,91.751,358.773,87.472z"/>
				<g>
					<g>
						<path style="fill:none;stroke:#462837;stroke-width:0.45;stroke-miterlimit:10;" d="M300.14,119.063
							c-15.77-26.265,16.692-40.708,16.692-40.708"/>
						<path style="fill:none;stroke:#462837;stroke-width:0.45;stroke-miterlimit:10;" d="M300.14,119.063
							c-22.408-7.518-16.535-34.499,8.255-40.354"/>
						<path style="fill:none;stroke:#462837;stroke-width:0.45;stroke-miterlimit:10;" d="M279.391,117.738
							c-9.32-2.212-14.826-18.692-0.626-30.94"/>
						<path style="fill:none;stroke:#462837;stroke-width:0.45;stroke-miterlimit:10;" d="M261.813,119.063
							c-4.516-4.2-4.093-17.407,11.87-29.384"/>
						<path style="fill:none;stroke:#462837;stroke-width:0.45;stroke-miterlimit:10;" d="M300.14,119.063
							c23.06-4.313,42.095-26.762,26.001-40.354"/>
						<path style="fill:none;stroke:#462837;stroke-width:0.45;stroke-miterlimit:10;" d="M332.116,90.475
							c0,12.442-3.94,22.537-15.988,28.19"/>
						<path style="fill:none;stroke:#462837;stroke-width:0.45;stroke-miterlimit:10;" d="M342.234,117.098
							c14.103-4.392,17.587-24.3,4.116-34.685"/>
						<path style="fill:none;stroke:#462837;stroke-width:0.45;stroke-miterlimit:10;" d="M355.818,119.063
							c0,0,5.829-8.348-1.513-24.44"/>
						<path style="fill:none;stroke:#462837;stroke-width:0.45;stroke-miterlimit:10;" d="M368.172,136.07
							c18.779-21.393,0-42.787,0-42.787"/>
						<path style="fill:none;stroke:#462837;stroke-width:0.45;stroke-miterlimit:10;" d="M370.877,152.847
							c25.686-16.777,13.947-41.753,13.947-41.753"/>
						<path style="fill:none;stroke:#462837;stroke-width:0.45;stroke-miterlimit:10;" d="M372.345,157.314
							c0,0,13.669-5.735,14.674-27.163"/>
					</g>
					<path style="fill:none;stroke:#462837;stroke-width:1.8;stroke-miterlimit:10;" d="M380.592,162.404h-4.252
						c-5.03-3.361-6.159-10.826-8.168-26.333c-0.675-5.212-4.451-12.291-12.354-17.008c-12.344-4.428-24.589,0-55.678,0
						c-21.401,0-29.83-4.428-38.327,0c-7.183,8.065-8.504,17.008-8.504,17.008c-2.897-7.77-3.457-16.974,0.154-24.331
						c10.263-20.905,33.951-33.385,63.369-33.385c30.873,0,53.75,11.016,67.992,32.739c7.398,11.282,10.428,26.518,8.536,42.899
						c-1.664,14.417-9.856,30.878-19.126,30.878L380.592,162.404z"/>
				</g>
			</g>
			<g>
				<g>
					<path style="fill:#462837;" d="M287.383,196.636c9.88,0.242,19.76-0.073,29.603-0.959c0.764-0.073,0.96,1.079,0.201,1.251
						c-4.893,1.123-9.915,1.59-14.921,1.77c-5.006,0.145-10.049,0.004-15.004-0.8C286.505,197.774,286.605,196.614,287.383,196.636
						L287.383,196.636z"/>
				</g>
				<path style="fill:#FAFAFA;" d="M332.55,181.514c-10.574,0-14.115-9.476-12.305-15.095c1.662-5.157,6.879-9.142,12.541-9.142
					c5.662,0,10.406,3.984,12.068,9.142C346.664,172.038,343.124,181.514,332.55,181.514z"/>
				<g>
					<path style="fill:#462837;" d="M323.909,146.363c3.02-4.291,9.23-5.405,13.842-3.222c1.207,0.529,5.456,3.274,3.628,4.711
						c-0.359,0.242-0.81,0.238-1.157,0.027c-3.258-2.112-7.446-2.848-11.191-1.69c-1.27,0.374-2.578,1.01-3.674,1.689
						C324.4,148.483,323.265,147.278,323.909,146.363L323.909,146.363z"/>
				</g>
				<ellipse style="opacity:0.25;fill:#F5C3B4;" cx="342.727" cy="189.593" rx="10.098" ry="8.079"/>
				<g>
					<path style="fill:#462837;" d="M344.185,170.291c0,6.693-4.521,11.223-10.098,11.223s-10.099-4.531-10.099-11.223
						c0-6.693,4.521-13.013,10.099-13.013S344.185,163.598,344.185,170.291z"/>
					<path style="fill:#FAFAFA;" d="M343.335,174.711c0,1.255-1.356,2.272-3.03,2.272c-1.673,0-3.03-1.017-3.03-2.272
						c0-1.255,1.356-2.272,3.03-2.272C341.978,172.439,343.335,173.456,343.335,174.711z"/>
				</g>
				<g>
					<path style="fill:#462837;" d="M325.069,179.145c4.609,2.331,10.143,2.362,14.785,0.104c0.382-0.197,0.72,0.384,0.357,0.618
						c-4.528,3.029-11.028,2.995-15.51-0.109C324.346,179.516,324.687,178.944,325.069,179.145L325.069,179.145z"/>
				</g>
				<g>
					<path style="fill:#462837;" d="M318.918,164.9c5.029-13.035,23.908-12.267,27.786,1.167c0.141,0.577-0.212,1.159-0.789,1.3
						c-0.51,0.125-1.023-0.137-1.233-0.596c-1.111-2.229-2.847-4.09-4.877-5.446c-6.25-4.411-15.093-1.897-18.949,4.487
						C320.211,166.91,318.482,166.09,318.918,164.9L318.918,164.9z"/>
				</g>
				<g>
					<path style="fill:#462837;" d="M346.427,157.505c-0.474,2.05-1.777,3.743-3.675,4.711c-0.753,0.433-1.727,0.154-2.122-0.624
						c-0.383-0.748-0.087-1.666,0.661-2.049c0.762-0.269,1.549-0.345,2.24-0.91c0.555-0.386,1.097-1.015,1.427-1.583
						C345.341,156.194,346.619,156.589,346.427,157.505L346.427,157.505z"/>
				</g>
				<path style="fill:#FAFAFA;" d="M273.606,181.514c8.988,0,11.998-9.476,10.459-15.095c-1.413-5.157-5.847-9.142-10.66-9.142
					c-4.813,0-8.845,3.984-10.258,9.142C261.609,172.038,264.618,181.514,273.606,181.514z"/>
				<g>
					<path style="fill:#462837;" d="M279.414,147.718c-2.619-1.875-6.015-2.704-9.095-1.536c-1.064,0.365-2.161,1.016-3.097,1.648
						c-0.888,0.638-2.086-0.474-1.542-1.402c2.284-4.217,8.153-5.592,12.215-3.206c1.143,0.604,4.677,3.443,2.79,4.66
						C280.25,148.12,279.771,148.001,279.414,147.718L279.414,147.718z"/>
				</g>
				<ellipse style="opacity:0.25;fill:#F5C3B4;" cx="264.955" cy="189.593" rx="8.584" ry="8.079"/>
				<g>
					<path style="fill:#462837;" d="M283.605,170.291c0,6.693-3.843,11.223-8.584,11.223c-4.741,0-8.584-4.531-8.584-11.223
						c0-6.693,3.843-13.013,8.584-13.013C279.762,157.278,283.605,163.598,283.605,170.291z"/>
					<path style="fill:#FAFAFA;" d="M282.882,174.711c0,1.255-1.153,2.272-2.575,2.272s-2.575-1.017-2.575-2.272
						c0-1.255,1.153-2.272,2.575-2.272S282.882,173.456,282.882,174.711z"/>
				</g>
				<g>
					<path style="fill:#462837;" d="M280.327,179.743c-3.64,3.101-9.589,3.145-13.282,0.11c-0.334-0.263,0.036-0.806,0.402-0.59
						c3.861,2.233,8.645,2.195,12.469-0.103C280.277,178.937,280.659,179.478,280.327,179.743L280.327,179.743z"/>
				</g>
				<g>
					<path style="fill:#462837;" d="M283.375,165.755c-2.089-3.802-5.909-6.868-10.278-6.659c-4.247,0.219-7.918,3.797-9.649,7.656
						c-0.501,1.144-2.28,0.58-2.041-0.637c1.667-8.914,12.082-14.071,19.519-7.918c2.193,1.761,3.731,4.183,4.436,6.761
						c0.157,0.574-0.181,1.167-0.755,1.324C284.115,166.418,283.607,166.186,283.375,165.755L283.375,165.755z"/>
				</g>
				<g>
					<path style="fill:#462837;" d="M263.178,157.083c0.54,1.054,1.625,2.159,2.791,2.348c0.83,0.164,1.37,0.969,1.206,1.799
						c-0.191,1.08-1.516,1.588-2.396,0.955c-1.359-0.801-2.228-1.985-2.738-3.372c-0.206-0.673-0.792-1.987,0.28-2.223
						C262.701,156.524,263.035,156.752,263.178,157.083L263.178,157.083z"/>
				</g>
				<g>
					<path style="fill:#462837;" d="M292.698,184.639c1.056,0.29,1.352,2.401-0.039,2.202
						C291.51,186.603,291.225,184.311,292.698,184.639L292.698,184.639z"/>
				</g>
			</g>
			<g>
				<path style="fill:#F5C3B4;" d="M374.233,184.922c2.362,4.324,17.117,3.213,20.267-13.13c2.579-13.381-11.337-19.781-18.16-9.388
					h-3.17v22.518H374.233z"/>
				<g>
					<g>
						<path style="fill:#462837;" d="M388.896,176.085c-1.118,2.166-3.042,4.545-5.723,4.649c-0.386,0.004-0.849-0.084-1.158-0.157
							c-2.419-0.662-5.309-0.49-7.193,1.265c-0.291,0.357-0.849-0.067-0.564-0.438c1.907-2.398,5.295-2.691,8.049-1.99
							c2.526,0.716,4.597-1.816,5.973-3.693C388.517,175.357,389.104,175.703,388.896,176.085L388.896,176.085z"/>
					</g>
					<g>
						<path style="fill:#462837;" d="M381.91,178.419c0.172-2.563-0.659-4.884-2.337-6.83c-0.617-0.771-1.337-1.681-1.547-2.744
							c-0.247-1.921,1.232-3.479,2.392-4.641c2.007-1.999,5.573-2.434,7.775-0.492c2.185,1.752,3.268,4.698,2.646,7.392
							c-0.044,0.192-0.236,0.312-0.428,0.268c-0.188-0.043-0.306-0.228-0.271-0.414c0.585-3.464-2.141-7.638-5.833-7.356
							c-2.178,0.225-4.43,2.333-5.097,4.317c-0.328,0.994,0.477,1.965,1.229,3.016c0.773,1.041,1.535,2.22,1.913,3.541
							c0.38,1.321,0.397,2.691,0.267,4.011c-0.019,0.196-0.194,0.339-0.39,0.32C382.035,178.787,381.893,178.612,381.91,178.419
							L381.91,178.419z"/>
					</g>
					<g>
						<path style="fill:#462837;" d="M375.892,162.11c4.845-8.188,15.888-7.192,19.038,1.849c1.73,5.145,0.303,10.694-2.186,15.331
							c-3.079,5.702-10.235,10.232-16.759,7.826c-1.329-0.475-2.305-1.787-2.798-3.017c-0.14-0.258-0.044-0.581,0.214-0.721
							c0.29-0.161,0.629-0.009,0.76,0.278c2.076,4.648,9.171,2.56,12.365,0.177c5.552-4.066,8.764-12.66,6.764-19.309
							c-2.673-7.848-12.021-8.696-16.503-1.824C376.398,163.268,375.532,162.688,375.892,162.11L375.892,162.11z"/>
					</g>
					
						<path style="fill:none;stroke:#462837;stroke-width:1.8;stroke-linecap:round;stroke-linejoin:round;stroke-miterlimit:10;" d="
						M374.047,185.315c-0.085,0.185-0.114,0.247-0.174,0.37"/>
					<path style="fill:none;stroke:#462837;stroke-width:1.8;stroke-linecap:round;stroke-miterlimit:10;" d="M374.945,161.27
						c0,0,0.525,0.519,1.163,0.975"/>
				</g>
			</g>
			<g>
				<path style="fill:#F5C3B4;" d="M231.845,282.114c14.062,0,29.554-1.651,37.361-2.609c3.273-0.402,6.48-1.178,9.573-2.32
					l35.919-13.269l2.126,1.063v-34.016c-12.067-3.645-26.96,7.85-49.66,20.415c-9.877,3.383-34.492,10.782-34.492,10.782
					L231.845,282.114z"/>
				<path style="opacity:0.5;fill:#F5C3B4;" d="M239.287,260.157c-3.936,1.198-6.615,2.003-6.615,2.003l-0.827,19.953
					c2.332,0,4.703-0.049,7.071-0.129C239.53,272.228,239.337,262.221,239.287,260.157z"/>
				<path style="opacity:0.5;fill:#F5C3B4;" d="M284.915,274.918l29.784-11.002l2.126,1.063v-34.016
					c-10.818-3.267-23.911,5.633-42.86,16.564C276.042,253.036,280.705,265.22,284.915,274.918z"/>
				<path style="fill:none;stroke:#462837;stroke-width:1.8;stroke-linecap:round;stroke-linejoin:round;stroke-miterlimit:10;" d="
					M231.845,282.114c14.062,0,29.554-1.651,37.361-2.609c3.273-0.402,6.48-1.178,9.573-2.32l35.919-13.269l2.126,1.063v-34.016
					c-12.067-3.645-26.96,7.85-49.66,20.415c-9.877,3.383-34.492,10.782-34.492,10.782L231.845,282.114z"/>
			</g>
			<g>
				<path style="fill:#D7DEFF;" d="M237.151,259.743c-2.676,0-4.479,1.354-4.479,1.354c-2.023-3.227-4.713-4.367-9.337-4.647
					c-5.864-0.356-8.81,2.21-8.687,3.187c0.357,2.833,6.74,2.128,6.892,3.299c0.166,1.278-1.757,2.255-3.786,2.09
					c-5.864-0.478-8.177-0.041-8.335,1.367c-0.055,0.495,0.546,1.209,1.652,1.951c-1.746,0.197-2.558,0.581-2.826,1.52
					c-0.204,0.712,0.727,1.707,2.47,2.515c-0.95,0.314-1.505,0.78-1.692,1.511c-0.157,0.614,1.154,1.607,3.207,2.328
					c-1.296,0.362-1.886,0.926-1.849,1.583c0.072,1.308,5.756,3.583,9.333,4.222c5.232,0.934,9.085,1.155,12.131,1.155
					c0,0,3.22,0.402,4.843,0.362C237.381,274.785,237.308,264.432,237.151,259.743z"/>
				<g>
					<path style="fill:none;stroke:#462837;stroke-width:1.8;stroke-miterlimit:10;" d="M208.246,269.863
						c0.268-0.935,1.064-1.321,2.797-1.519"/>
					<g>
						<path style="fill:#462837;" d="M217.858,274.443c-2.768,0.151-10.88-0.948-10.477-4.828c0.347-1.132,2.036-0.648,1.731,0.495
							c1.831,2.281,5.766,2.843,8.739,2.966C218.735,273.082,218.745,274.428,217.858,274.443L217.858,274.443z"/>
					</g>
					<path style="fill:none;stroke:#462837;stroke-width:1.8;stroke-miterlimit:10;" d="M209.024,273.889
						c0.181-0.708,0.697-1.172,1.591-1.485"/>
					<g>
						<path style="fill:#462837;" d="M218.104,277.775c-2.372,0.264-10.242-0.854-9.952-4.109c0.314-1.141,2.017-0.705,1.744,0.447
							c0.077-0.257-0.073-0.274,0.036-0.175c2.106,1.923,5.329,2.421,8.118,2.472C218.929,276.386,218.986,277.726,218.104,277.775
							L218.104,277.775z"/>
					</g>
					<g>
						<path style="fill:#462837;" d="M210.315,266.492c1.697,2.121,5.14,3.144,7.9,3.85c0.372,0.082,0.606,0.454,0.518,0.825
							c-0.085,0.357-0.437,0.582-0.794,0.513c-1.706-0.329-3.403-0.771-5.039-1.452c-1.255-0.532-2.511-1.15-3.534-2.131
							c-0.465-0.503-0.858-0.935-0.84-1.806C208.679,265.12,210.426,265.314,210.315,266.492L210.315,266.492z"/>
					</g>
					
						<path style="fill:none;stroke:#462837;stroke-width:1.8;stroke-linecap:round;stroke-linejoin:round;stroke-miterlimit:10;" d="
						M210.382,277.799c0.072,1.308,5.756,3.583,9.333,4.222c5.232,0.934,9.085,1.155,12.131,1.155c0,0,3.22,0.402,4.843,0.363
						c0.693-8.754,0.619-19.107,0.462-23.796c-2.676,0-4.479,1.354-4.479,1.354c-2.023-3.227-4.713-4.367-9.337-4.647
						c-5.864-0.355-8.81,2.21-8.687,3.187c0.357,2.833,6.74,2.128,6.892,3.299c0.166,1.278-1.757,2.255-3.786,2.09
						c-5.864-0.478-8.177-0.041-8.335,1.367"/>
					<path style="fill:none;stroke:#462837;stroke-width:1.8;stroke-miterlimit:10;" d="M212.224,276.217
						c-1.292,0.362-1.878,0.925-1.842,1.582"/>
					<g>
						<path style="fill:#462837;" d="M233.022,263.564c1.214,5.662,0.757,11.619-0.828,17.158c-0.113,0.415-0.77,0.274-0.697-0.153
							c0.918-5.564,1.358-11.246,0.824-16.867C232.249,263.268,232.927,263.13,233.022,263.564L233.022,263.564z"/>
					</g>
				</g>
			</g>
			<g>
				<path style="fill:#9FAAFC;" d="M317.212,229.525c-10.191-3.076-21.715,3.671-37.665,13.014
					c-1.151,0.674-2.317,1.356-3.495,2.043c1.911,5.129,7.165,19.037,12.21,30.7l26.347-9.734l3.719,1.86l-0.051-37.562
					L317.212,229.525z"/>
				<g>
					<g>
						<path style="fill:#462837;" d="M315.011,264.742l3.622,2.054c0.741,0.42,0.165,1.562-0.611,1.222l-3.816-1.667
							C313.077,265.827,313.912,264.154,315.011,264.742L315.011,264.742z"/>
					</g>
					
						<path style="fill:none;stroke:#462837;stroke-width:1.8;stroke-linecap:round;stroke-linejoin:round;stroke-miterlimit:10;" d="
						M318.276,229.846l-1.065-0.321c-10.191-3.076-21.715,3.671-37.665,13.014c-1.151,0.674-2.317,1.356-3.495,2.043
						c1.911,5.129,7.165,19.037,12.21,30.7l26.347-9.734"/>
					<g>
						<path style="fill:#462837;" d="M287.155,241.191c8.311,4.822,17.906,7.243,27.477,7.652c0.445,0.016,0.433,0.725-0.023,0.713
							c-9.756,0.243-19.735-2.275-27.862-7.778C286.376,241.52,286.775,240.926,287.155,241.191L287.155,241.191z"/>
					</g>
				</g>
			</g>
		</g>
	</g>
</g>
</svg>
